<svg width="210" height="98" viewBox="0 0 210 98" fill="none" xmlns="http://www.w3.org/2000/svg">
<path d="M17.5469 0.671875C19.9062 0.671875 22.1406 0.882812 24.25 1.30469C26.3594 1.71094 28.1953 2.28906 29.7578 3.03906C31.3359 3.78906 32.5859 4.6875 33.5078 5.73438C34.4297 6.76562 34.8906 7.90625 34.8906 9.15625V13.2812H28.7031V10.9844C28.7031 10.3125 28.4453 9.67188 27.9297 9.0625C27.4141 8.4375 26.6719 7.89844 25.7031 7.44531C24.75 6.97656 23.5859 6.60938 22.2109 6.34375C20.8359 6.0625 19.2812 5.92188 17.5469 5.92188C15.875 5.92188 14.3516 6.05469 12.9766 6.32031C11.6016 6.57031 10.4219 6.92188 9.4375 7.375C8.45312 7.82812 7.6875 8.36719 7.14062 8.99219C6.60938 9.60156 6.34375 10.2656 6.34375 10.9844V27.5312C6.34375 28.2188 6.60938 28.8672 7.14062 29.4766C7.6875 30.0859 8.45312 30.6172 9.4375 31.0703C10.4219 31.5078 11.6016 31.8594 12.9766 32.125C14.3516 32.375 15.875 32.5 17.5469 32.5C19.2812 32.5 20.8359 32.3672 22.2109 32.1016C23.5859 31.8203 24.75 31.4531 25.7031 31C26.6719 30.5469 27.4141 30.0234 27.9297 29.4297C28.4453 28.8203 28.7031 28.1875 28.7031 27.5312V25.1875H34.8906V29.3125C34.8906 30.1406 34.6797 30.9297 34.2578 31.6797C33.8359 32.4141 33.2422 33.0938 32.4766 33.7188C31.7266 34.3438 30.8203 34.9062 29.7578 35.4062C28.7109 35.8906 27.5391 36.3125 26.2422 36.6719C24.9609 37.0156 23.5859 37.2812 22.1172 37.4688C20.6484 37.6562 19.125 37.75 17.5469 37.75C15.9688 37.75 14.4453 37.6562 12.9766 37.4688C11.5078 37.2812 10.125 37.0156 8.82812 36.6719C7.54688 36.3125 6.375 35.8906 5.3125 35.4062C4.26562 34.9062 3.35938 34.3438 2.59375 33.7188C1.84375 33.0938 1.25781 32.4141 0.835938 31.6797C0.414062 30.9297 0.203125 30.1406 0.203125 29.3125V9.15625C0.203125 8.32812 0.414062 7.53906 0.835938 6.78906C1.25781 6.03906 1.84375 5.35156 2.59375 4.72656C3.35938 4.10156 4.26562 3.53906 5.3125 3.03906C6.375 2.53906 7.54688 2.11719 8.82812 1.77344C10.125 1.41406 11.5078 1.14062 12.9766 0.953125C14.4453 0.765625 15.9688 0.671875 17.5469 0.671875ZM56.7812 9.85938C58.0938 9.85938 59.3984 9.92188 60.6953 10.0469C62.0078 10.1719 63.2656 10.375 64.4688 10.6562C65.6719 10.9375 66.7969 11.2891 67.8438 11.7109C68.8906 12.1328 69.7969 12.6406 70.5625 13.2344C71.3438 13.8281 71.9531 14.5156 72.3906 15.2969C72.8281 16.0625 73.0469 16.9219 73.0469 17.875V30.0156C73.0469 30.8594 72.8281 31.6328 72.3906 32.3359C71.9531 33.0391 71.3438 33.6719 70.5625 34.2344C69.7969 34.7812 68.8906 35.2578 67.8438 35.6641C66.7969 36.0703 65.6719 36.4062 64.4688 36.6719C63.2656 36.9375 62.0078 37.1328 60.6953 37.2578C59.3828 37.3984 58.0781 37.4688 56.7812 37.4688C55.4844 37.4688 54.1797 37.3984 52.8672 37.2578C51.5703 37.1328 50.3203 36.9375 49.1172 36.6719C47.9141 36.4062 46.7891 36.0703 45.7422 35.6641C44.7109 35.2578 43.8047 34.7812 43.0234 34.2344C42.2578 33.6719 41.6562 33.0469 41.2188 32.3594C40.7812 31.6562 40.5625 30.875 40.5625 30.0156V17.875C40.5625 16.9219 40.7812 16.0625 41.2188 15.2969C41.6562 14.5156 42.2578 13.8281 43.0234 13.2344C43.8047 12.6406 44.7109 12.1328 45.7422 11.7109C46.7891 11.2891 47.9141 10.9375 49.1172 10.6562C50.3203 10.375 51.5703 10.1719 52.8672 10.0469C54.1797 9.92188 55.4844 9.85938 56.7812 9.85938ZM46.5156 28.5156C46.5156 29.2344 46.8125 29.8594 47.4062 30.3906C48.0156 30.9062 48.8047 31.3438 49.7734 31.7031C50.7422 32.0469 51.8359 32.3047 53.0547 32.4766C54.2891 32.6484 55.5312 32.7344 56.7812 32.7344C58.0938 32.7344 59.3594 32.6406 60.5781 32.4531C61.8125 32.2656 62.9062 32 63.8594 31.6562C64.8125 31.2969 65.5703 30.8594 66.1328 30.3438C66.7109 29.8125 67 29.2031 67 28.5156V18.7656C67 18.0938 66.7109 17.4922 66.1328 16.9609C65.5703 16.4141 64.8125 15.9609 63.8594 15.6016C62.9062 15.2266 61.8125 14.9453 60.5781 14.7578C59.3594 14.5547 58.0938 14.4531 56.7812 14.4531C55.5312 14.4531 54.2891 14.5469 53.0547 14.7344C51.8359 14.9062 50.7422 15.1719 49.7734 15.5312C48.8047 15.8906 48.0156 16.3438 47.4062 16.8906C46.8125 17.4219 46.5156 18.0469 46.5156 18.7656V28.5156ZM102.391 10.0938C104.797 10.0938 106.969 10.2969 108.906 10.7031C110.844 11.0938 112.492 11.6875 113.852 12.4844C115.211 13.2812 116.258 14.2734 116.992 15.4609C117.727 16.6328 118.094 18 118.094 19.5625V37H111.953V20.9688C111.953 19.6719 111.672 18.6172 111.109 17.8047C110.547 16.9766 109.805 16.3281 108.883 15.8594C107.961 15.3906 106.914 15.0703 105.742 14.8984C104.57 14.7266 103.375 14.6406 102.156 14.6406V37H96.4844V14.6406C95.4688 14.6406 94.4922 14.7266 93.5547 14.8984C92.6328 15.0547 91.7578 15.2734 90.9297 15.5547C90.1016 15.8359 89.3203 16.1562 88.5859 16.5156C87.8516 16.875 87.1719 17.25 86.5469 17.6406V37H80.4062V17.6406C80.3438 17.1406 80.1953 16.7188 79.9609 16.375C79.7422 16.0312 79.5 15.75 79.2344 15.5312C78.9375 15.2656 78.6094 15.0469 78.25 14.875L80.875 10.2812C81.4531 10.4844 82.0234 10.75 82.5859 11.0781C83.0703 11.3594 83.5781 11.7266 84.1094 12.1797C84.6406 12.6328 85.1094 13.1875 85.5156 13.8438C86.7812 13.0781 88 12.4531 89.1719 11.9688C90.3438 11.4688 91.5781 11.0859 92.875 10.8203C94.1719 10.5391 95.5859 10.3516 97.1172 10.2578C98.6484 10.1484 100.406 10.0938 102.391 10.0938ZM132.953 37H127V10.2812H132.953V37ZM130 1C131.156 1 132.07 1.19531 132.742 1.58594C133.414 1.96094 133.75 2.5625 133.75 3.39062V4.5625C133.75 5.3125 133.414 5.85156 132.742 6.17969C132.07 6.50781 131.156 6.67188 130 6.67188C128.891 6.67188 127.992 6.50781 127.305 6.17969C126.633 5.85156 126.297 5.3125 126.297 4.5625V3.39062C126.297 2.5625 126.633 1.96094 127.305 1.58594C127.992 1.19531 128.891 1 130 1ZM142.703 17.6406C142.641 17.1406 142.492 16.7188 142.258 16.375C142.039 16.0312 141.797 15.75 141.531 15.5312C141.234 15.2656 140.906 15.0469 140.547 14.875L143.172 10.2812C143.75 10.4844 144.328 10.7578 144.906 11.1016C145.391 11.3984 145.898 11.7812 146.43 12.25C146.977 12.7031 147.453 13.2656 147.859 13.9375C148.641 13.4375 149.438 12.9688 150.25 12.5312C151.078 12.0781 151.938 11.6875 152.828 11.3594C153.734 11.0312 154.68 10.7734 155.664 10.5859C156.664 10.3828 157.734 10.2812 158.875 10.2812C161.281 10.2812 163.344 10.4844 165.062 10.8906C166.797 11.2812 168.211 11.875 169.305 12.6719C170.414 13.4531 171.227 14.4297 171.742 15.6016C172.258 16.7734 172.516 18.1406 172.516 19.7031V37H166.375V21.1562C166.375 20.2812 166.258 19.5312 166.023 18.9062C165.789 18.2656 165.469 17.7266 165.062 17.2891C164.672 16.8359 164.211 16.4688 163.68 16.1875C163.148 15.9062 162.594 15.6953 162.016 15.5547C161.453 15.3984 160.875 15.2969 160.281 15.25C159.688 15.1875 159.125 15.1562 158.594 15.1562C157.594 15.1562 156.641 15.2266 155.734 15.3672C154.828 15.5078 153.969 15.7031 153.156 15.9531C152.344 16.1875 151.578 16.4688 150.859 16.7969C150.141 17.125 149.469 17.4688 148.844 17.8281V37H142.703V17.6406ZM194.453 10.2812C195.781 10.2812 197.133 10.3359 198.508 10.4453C199.883 10.5391 201.203 10.6719 202.469 10.8438C203.75 11 204.945 11.1875 206.055 11.4062C207.18 11.625 208.156 11.8594 208.984 12.1094H209.359V38.1719C209.359 39.2812 209.125 40.3125 208.656 41.2656C208.188 42.2188 207.508 43.0391 206.617 43.7266C205.727 44.4297 204.633 44.9766 203.336 45.3672C202.039 45.7578 200.562 45.9531 198.906 45.9531V41.875C199.531 41.875 200.109 41.8125 200.641 41.6875C201.172 41.5625 201.633 41.3672 202.023 41.1016C202.43 40.8516 202.742 40.5312 202.961 40.1406C203.195 39.7656 203.312 39.3281 203.312 38.8281V35.2188C201.891 35.7656 200.414 36.2031 198.883 36.5312C197.367 36.8438 195.891 37 194.453 37C192.047 37 189.898 36.8359 188.008 36.5078C186.117 36.1641 184.516 35.6406 183.203 34.9375C181.891 34.2344 180.891 33.3438 180.203 32.2656C179.516 31.1875 179.172 29.9062 179.172 28.4219V18.8594C179.172 17.375 179.516 16.0938 180.203 15.0156C180.891 13.9375 181.891 13.0469 183.203 12.3438C184.516 11.6406 186.117 11.125 188.008 10.7969C189.898 10.4531 192.047 10.2812 194.453 10.2812ZM196.141 32.3125C197 32.3125 197.789 32.2578 198.508 32.1484C199.227 32.0234 199.875 31.8672 200.453 31.6797C201.047 31.4922 201.578 31.2969 202.047 31.0938C202.531 30.875 202.953 30.6719 203.312 30.4844V15.9062C202.891 15.75 202.398 15.5938 201.836 15.4375C201.289 15.2812 200.695 15.1484 200.055 15.0391C199.43 14.9141 198.781 14.8203 198.109 14.7578C197.438 14.6797 196.781 14.6406 196.141 14.6406C194.688 14.6406 193.305 14.6797 191.992 14.7578C190.68 14.8359 189.531 15.0469 188.547 15.3906C187.562 15.7344 186.773 16.2656 186.18 16.9844C185.602 17.6875 185.312 18.6719 185.312 19.9375V26.8281C185.312 27.6562 185.445 28.3672 185.711 28.9609C185.977 29.5547 186.344 30.0547 186.812 30.4609C187.297 30.8672 187.875 31.1953 188.547 31.4453C189.219 31.6797 189.953 31.8672 190.75 32.0078C191.547 32.1328 192.398 32.2188 193.305 32.2656C194.227 32.2969 195.172 32.3125 196.141 32.3125ZM17.5 61.2812C19.625 61.2812 21.6797 61.4141 23.6641 61.6797C25.6641 61.9297 27.4531 62.3672 29.0312 62.9922C30.625 63.6016 31.9297 64.4297 32.9453 65.4766C33.9766 66.5234 34.5781 67.8281 34.75 69.3906L28.6562 71.0781C28.6562 70.1406 28.3359 69.375 27.6953 68.7812C27.0703 68.1719 26.2344 67.6953 25.1875 67.3516C24.1562 66.9922 22.9688 66.7422 21.625 66.6016C20.2969 66.4609 18.9219 66.3906 17.5 66.3906C16.1094 66.3906 14.7422 66.4531 13.3984 66.5781C12.0547 66.7031 10.8438 66.9375 9.76562 67.2812C8.70312 67.625 7.84375 68.1016 7.1875 68.7109C6.53125 69.3203 6.20312 70.1094 6.20312 71.0781V76.6562H34.75V88.7969C34.75 89.8438 34.5156 90.7812 34.0469 91.6094C33.5938 92.4219 32.9609 93.1328 32.1484 93.7422C31.3516 94.3359 30.3984 94.8438 29.2891 95.2656C28.1953 95.6719 27.0078 96 25.7266 96.25C24.4609 96.5 23.125 96.6797 21.7188 96.7891C20.3125 96.8984 18.9062 96.9531 17.5 96.9531C16.0625 96.9531 14.6484 96.8984 13.2578 96.7891C11.8672 96.6797 10.5469 96.5 9.29688 96.25C8.04688 96 6.88281 95.6719 5.80469 95.2656C4.74219 94.8438 3.80469 94.3359 2.99219 93.7422C2.17969 93.1328 1.52344 92.4219 1.02344 91.6094C0.523438 90.7969 0.21875 89.8594 0.109375 88.7969L6.20312 87.1094C6.20312 88.0781 6.53125 88.8672 7.1875 89.4766C7.84375 90.0859 8.70312 90.5625 9.76562 90.9062C10.8438 91.25 12.0547 91.4844 13.3984 91.6094C14.7422 91.7344 16.1094 91.7969 17.5 91.7969C18.9219 91.7969 20.2969 91.7344 21.625 91.6094C22.9688 91.4688 24.1562 91.2266 25.1875 90.8828C26.2344 90.5234 27.0703 90.0391 27.6953 89.4297C28.3359 88.8203 28.6562 88.0469 28.6562 87.1094V81.3906H0.109375V69.3906C0.109375 68.3438 0.335938 67.4219 0.789062 66.625C1.25781 65.8125 1.89062 65.1094 2.6875 64.5156C3.5 63.9062 4.46094 63.3984 5.57031 62.9922C6.67969 62.5703 7.875 62.2344 9.15625 61.9844C10.4531 61.7344 11.8047 61.5547 13.2109 61.4453C14.6328 61.3359 16.0625 61.2812 17.5 61.2812ZM56.6406 69.8594C57.9531 69.8594 59.2578 69.9219 60.5547 70.0469C61.8672 70.1719 63.125 70.375 64.3281 70.6562C65.5312 70.9375 66.6562 71.2891 67.7031 71.7109C68.75 72.1328 69.6562 72.6406 70.4219 73.2344C71.2031 73.8281 71.8125 74.5156 72.25 75.2969C72.6875 76.0625 72.9062 76.9219 72.9062 77.875V90.0156C72.9062 90.8594 72.6875 91.6328 72.25 92.3359C71.8125 93.0391 71.2031 93.6719 70.4219 94.2344C69.6562 94.7812 68.75 95.2578 67.7031 95.6641C66.6562 96.0703 65.5312 96.4062 64.3281 96.6719C63.125 96.9375 61.8672 97.1328 60.5547 97.2578C59.2422 97.3984 57.9375 97.4688 56.6406 97.4688C55.3438 97.4688 54.0391 97.3984 52.7266 97.2578C51.4297 97.1328 50.1797 96.9375 48.9766 96.6719C47.7734 96.4062 46.6484 96.0703 45.6016 95.6641C44.5703 95.2578 43.6641 94.7812 42.8828 94.2344C42.1172 93.6719 41.5156 93.0469 41.0781 92.3594C40.6406 91.6562 40.4219 90.875 40.4219 90.0156V77.875C40.4219 76.9219 40.6406 76.0625 41.0781 75.2969C41.5156 74.5156 42.1172 73.8281 42.8828 73.2344C43.6641 72.6406 44.5703 72.1328 45.6016 71.7109C46.6484 71.2891 47.7734 70.9375 48.9766 70.6562C50.1797 70.375 51.4297 70.1719 52.7266 70.0469C54.0391 69.9219 55.3438 69.8594 56.6406 69.8594ZM46.375 88.5156C46.375 89.2344 46.6719 89.8594 47.2656 90.3906C47.875 90.9062 48.6641 91.3438 49.6328 91.7031C50.6016 92.0469 51.6953 92.3047 52.9141 92.4766C54.1484 92.6484 55.3906 92.7344 56.6406 92.7344C57.9531 92.7344 59.2188 92.6406 60.4375 92.4531C61.6719 92.2656 62.7656 92 63.7188 91.6562C64.6719 91.2969 65.4297 90.8594 65.9922 90.3438C66.5703 89.8125 66.8594 89.2031 66.8594 88.5156V78.7656C66.8594 78.0938 66.5703 77.4922 65.9922 76.9609C65.4297 76.4141 64.6719 75.9609 63.7188 75.6016C62.7656 75.2266 61.6719 74.9453 60.4375 74.7578C59.2188 74.5547 57.9531 74.4531 56.6406 74.4531C55.3906 74.4531 54.1484 74.5469 52.9141 74.7344C51.6953 74.9062 50.6016 75.1719 49.6328 75.5312C48.6641 75.8906 47.875 76.3438 47.2656 76.8906C46.6719 77.4219 46.375 78.0469 46.375 78.7656V88.5156ZM94.2812 69.8594C95.5938 69.8594 96.8984 69.9219 98.1953 70.0469C99.5078 70.1719 100.766 70.375 101.969 70.6562C103.172 70.9375 104.297 71.2891 105.344 71.7109C106.391 72.1328 107.297 72.6406 108.062 73.2344C108.844 73.8281 109.453 74.5156 109.891 75.2969C110.328 76.0625 110.547 76.9219 110.547 77.875V90.0156C110.547 90.8594 110.328 91.6328 109.891 92.3359C109.453 93.0391 108.844 93.6719 108.062 94.2344C107.297 94.7812 106.391 95.2578 105.344 95.6641C104.297 96.0703 103.172 96.4062 101.969 96.6719C100.766 96.9375 99.5078 97.1328 98.1953 97.2578C96.8828 97.3984 95.5781 97.4688 94.2812 97.4688C92.9844 97.4688 91.6797 97.3984 90.3672 97.2578C89.0703 97.1328 87.8203 96.9375 86.6172 96.6719C85.4141 96.4062 84.2891 96.0703 83.2422 95.6641C82.2109 95.2578 81.3047 94.7812 80.5234 94.2344C79.7578 93.6719 79.1562 93.0469 78.7188 92.3594C78.2812 91.6562 78.0625 90.875 78.0625 90.0156V77.875C78.0625 76.9219 78.2812 76.0625 78.7188 75.2969C79.1562 74.5156 79.7578 73.8281 80.5234 73.2344C81.3047 72.6406 82.2109 72.1328 83.2422 71.7109C84.2891 71.2891 85.4141 70.9375 86.6172 70.6562C87.8203 70.375 89.0703 70.1719 90.3672 70.0469C91.6797 69.9219 92.9844 69.8594 94.2812 69.8594ZM84.0156 88.5156C84.0156 89.2344 84.3125 89.8594 84.9062 90.3906C85.5156 90.9062 86.3047 91.3438 87.2734 91.7031C88.2422 92.0469 89.3359 92.3047 90.5547 92.4766C91.7891 92.6484 93.0312 92.7344 94.2812 92.7344C95.5938 92.7344 96.8594 92.6406 98.0781 92.4531C99.3125 92.2656 100.406 92 101.359 91.6562C102.312 91.2969 103.07 90.8594 103.633 90.3438C104.211 89.8125 104.5 89.2031 104.5 88.5156V78.7656C104.5 78.0938 104.211 77.4922 103.633 76.9609C103.07 76.4141 102.312 75.9609 101.359 75.6016C100.406 75.2266 99.3125 74.9453 98.0781 74.7578C96.8594 74.5547 95.5938 74.4531 94.2812 74.4531C93.0312 74.4531 91.7891 74.5469 90.5547 74.7344C89.3359 74.9062 88.2422 75.1719 87.2734 75.5312C86.3047 75.8906 85.5156 76.3438 84.9062 76.8906C84.3125 77.4219 84.0156 78.0469 84.0156 78.7656V88.5156ZM117.062 77.6406C117 77.1406 116.852 76.7188 116.617 76.375C116.398 76.0312 116.156 75.75 115.891 75.5312C115.594 75.2656 115.266 75.0469 114.906 74.875L117.531 70.2812C118.109 70.4844 118.688 70.7578 119.266 71.1016C119.75 71.3984 120.258 71.7812 120.789 72.25C121.336 72.7031 121.812 73.2656 122.219 73.9375C123 73.4375 123.797 72.9688 124.609 72.5312C125.438 72.0781 126.297 71.6875 127.188 71.3594C128.094 71.0312 129.039 70.7734 130.023 70.5859C131.023 70.3828 132.094 70.2812 133.234 70.2812C135.641 70.2812 137.703 70.4844 139.422 70.8906C141.156 71.2812 142.57 71.875 143.664 72.6719C144.773 73.4531 145.586 74.4297 146.102 75.6016C146.617 76.7734 146.875 78.1406 146.875 79.7031V97H140.734V81.1562C140.734 80.2812 140.617 79.5312 140.383 78.9062C140.148 78.2656 139.828 77.7266 139.422 77.2891C139.031 76.8359 138.57 76.4688 138.039 76.1875C137.508 75.9062 136.953 75.6953 136.375 75.5547C135.812 75.3984 135.234 75.2969 134.641 75.25C134.047 75.1875 133.484 75.1562 132.953 75.1562C131.953 75.1562 131 75.2266 130.094 75.3672C129.188 75.5078 128.328 75.7031 127.516 75.9531C126.703 76.1875 125.938 76.4688 125.219 76.7969C124.5 77.125 123.828 77.4688 123.203 77.8281V97H117.062V77.6406ZM159.203 89.125C159.766 89.125 160.32 89.1719 160.867 89.2656C161.43 89.3594 161.93 89.5 162.367 89.6875C162.805 89.875 163.156 90.1172 163.422 90.4141C163.703 90.7109 163.844 91.0625 163.844 91.4688V94.8906C163.844 95.2656 163.703 95.5859 163.422 95.8516C163.156 96.1172 162.805 96.3359 162.367 96.5078C161.93 96.6797 161.43 96.8047 160.867 96.8828C160.32 96.9609 159.766 97 159.203 97C158.641 97 158.086 96.9609 157.539 96.8828C156.992 96.8047 156.5 96.6797 156.062 96.5078C155.625 96.3359 155.273 96.1172 155.008 95.8516C154.742 95.5859 154.609 95.2656 154.609 94.8906V91.4688C154.609 91.0625 154.742 90.7109 155.008 90.4141C155.273 90.1172 155.625 89.875 156.062 89.6875C156.5 89.5 156.992 89.3594 157.539 89.2656C158.086 89.1719 158.641 89.125 159.203 89.125ZM175.328 89.125C175.891 89.125 176.445 89.1719 176.992 89.2656C177.555 89.3594 178.055 89.5 178.492 89.6875C178.93 89.875 179.281 90.1172 179.547 90.4141C179.828 90.7109 179.969 91.0625 179.969 91.4688V94.8906C179.969 95.2656 179.828 95.5859 179.547 95.8516C179.281 96.1172 178.93 96.3359 178.492 96.5078C178.055 96.6797 177.555 96.8047 176.992 96.8828C176.445 96.9609 175.891 97 175.328 97C174.766 97 174.211 96.9609 173.664 96.8828C173.117 96.8047 172.625 96.6797 172.188 96.5078C171.75 96.3359 171.398 96.1172 171.133 95.8516C170.867 95.5859 170.734 95.2656 170.734 94.8906V91.4688C170.734 91.0625 170.867 90.7109 171.133 90.4141C171.398 90.1172 171.75 89.875 172.188 89.6875C172.625 89.5 173.117 89.3594 173.664 89.2656C174.211 89.1719 174.766 89.125 175.328 89.125ZM191.453 89.125C192.016 89.125 192.57 89.1719 193.117 89.2656C193.68 89.3594 194.18 89.5 194.617 89.6875C195.055 89.875 195.406 90.1172 195.672 90.4141C195.953 90.7109 196.094 91.0625 196.094 91.4688V94.8906C196.094 95.2656 195.953 95.5859 195.672 95.8516C195.406 96.1172 195.055 96.3359 194.617 96.5078C194.18 96.6797 193.68 96.8047 193.117 96.8828C192.57 96.9609 192.016 97 191.453 97C190.891 97 190.336 96.9609 189.789 96.8828C189.242 96.8047 188.75 96.6797 188.312 96.5078C187.875 96.3359 187.523 96.1172 187.258 95.8516C186.992 95.5859 186.859 95.2656 186.859 94.8906V91.4688C186.859 91.0625 186.992 90.7109 187.258 90.4141C187.523 90.1172 187.875 89.875 188.312 89.6875C188.75 89.5 189.242 89.3594 189.789 89.2656C190.336 89.1719 190.891 89.125 191.453 89.125Z" fill="black"/>
</svg>
