<svg width="175" height="209" viewBox="0 0 175 209" fill="none" xmlns="http://www.w3.org/2000/svg">
<path d="M3.408 183.408L3.504 174.912V165.312C3.504 160.8 3.392 157.088 3.168 154.176C3.712 154.08 4.368 154.032 5.136 154.032C6.704 154.032 7.488 154.64 7.488 155.856C7.488 156.048 7.456 156.688 7.392 157.776C7.2 161.104 7.104 164.048 7.104 166.608V176.256C7.104 180.576 7.408 183.744 8.016 185.76C7.44 186.016 6.688 186.144 5.76 186.144C4.832 186.144 4.208 185.936 3.888 185.52C3.568 185.104 3.408 184.4 3.408 183.408ZM13.5218 171.888L17.5058 172.08C19.0098 172.08 20.2578 171.968 21.2498 171.744C21.3458 172.032 21.3938 172.48 21.3938 173.088C21.3938 173.696 21.2338 174.176 20.9138 174.528C20.5938 174.88 20.1778 175.056 19.6658 175.056L15.9698 174.816C14.4658 174.816 13.1218 174.944 11.9378 175.2C11.8418 174.72 11.7938 174.24 11.7938 173.76C11.7938 173.248 11.9218 172.816 12.1777 172.464C12.4658 172.08 12.9138 171.888 13.5218 171.888ZM25.3523 183.408L25.4483 174.912V165.312C25.4483 160.896 25.2403 157.216 24.8242 154.272C27.1923 153.888 29.5763 153.696 31.9763 153.696C40.5523 153.696 44.8403 156.88 44.8403 163.248C44.8403 165.872 44.1203 168 42.6803 169.632C41.2403 171.232 39.3363 172.256 36.9683 172.704C36.9683 172.736 37.2403 173.328 37.7843 174.48C38.3283 175.632 38.6963 176.4 38.8883 176.784C39.1123 177.168 39.4483 177.792 39.8963 178.656C40.7283 180.256 41.4483 181.36 42.0563 181.968C42.8883 182.896 43.9123 183.36 45.1283 183.36C45.5123 183.36 45.9443 183.312 46.4243 183.216C46.7123 183.792 46.8563 184.272 46.8563 184.656C46.8563 185.872 45.6563 186.48 43.2563 186.48C41.9443 186.48 40.7283 185.84 39.6083 184.56C39.0003 183.856 38.4723 183.232 38.0243 182.688C37.6083 182.144 37.0803 181.296 36.4403 180.144C35.8323 178.992 35.4003 178.176 35.1443 177.696C34.8883 177.184 34.4563 176.272 33.8483 174.96C33.2403 173.616 32.8883 172.848 32.7923 172.656C31.8963 172.528 31.4483 172.176 31.4483 171.6C31.4483 171.312 31.5283 170.88 31.6883 170.304C32.5843 170.464 33.3363 170.544 33.9443 170.544C36.0883 170.544 37.7683 169.92 38.9843 168.672C40.2003 167.392 40.8083 165.568 40.8083 163.2C40.8083 160.832 40.1363 159.152 38.7923 158.16C37.4483 157.136 35.3843 156.624 32.6003 156.624C31.5763 156.624 30.3283 156.688 28.8563 156.816C28.9843 158.672 29.0483 161.936 29.0483 166.608V176.256C29.0483 180.576 29.3523 183.744 29.9603 185.76C29.3843 186.016 28.6323 186.144 27.7043 186.144C26.7763 186.144 26.1523 185.936 25.8323 185.52C25.5123 185.104 25.3523 184.4 25.3523 183.408ZM59.9734 163.2C62.2134 163.2 64.0214 163.84 65.3974 165.12C66.8054 166.368 67.5094 167.728 67.5094 169.2C67.5094 170.672 67.2854 171.824 66.8374 172.656C66.3894 173.488 65.7974 174.144 65.0614 174.624C64.3574 175.104 63.3334 175.472 61.9894 175.728C59.9414 176.112 56.8694 176.304 52.7734 176.304C53.0294 178.608 53.7174 180.432 54.8374 181.776C55.9894 183.12 57.6854 183.792 59.9254 183.792C62.1654 183.792 63.7494 182.96 64.6774 181.296C65.9574 181.808 66.5974 182.512 66.5974 183.408C66.5974 184.304 65.8614 185.04 64.3894 185.616C62.9494 186.192 61.3334 186.48 59.5414 186.48C56.5334 186.48 54.0694 185.536 52.1494 183.648C50.2294 181.728 49.2694 178.864 49.2694 175.056C49.2694 171.216 50.3254 168.288 52.4374 166.272C54.5814 164.224 57.0934 163.2 59.9734 163.2ZM59.7814 165.84C57.8614 165.84 56.2134 166.496 54.8374 167.808C53.4934 169.12 52.7894 171.152 52.7254 173.904C57.3014 173.904 60.3414 173.568 61.8454 172.896C62.4854 172.608 63.0294 172.192 63.4774 171.648C63.9574 171.104 64.1974 170.384 64.1974 169.488C64.1974 168.56 63.7654 167.728 62.9014 166.992C62.0694 166.224 61.0294 165.84 59.7814 165.84ZM84.5363 169.008C84.1843 168.08 83.4643 167.328 82.3763 166.752C81.2883 166.176 80.1683 165.888 79.0163 165.888C77.8963 165.888 76.9363 166.192 76.1363 166.8C75.3363 167.376 74.9363 168.176 74.9363 169.2C74.9363 170.224 75.3523 171.008 76.1843 171.552C77.0483 172.096 78.0883 172.512 79.3043 172.8C80.5203 173.088 81.7363 173.424 82.9523 173.808C84.1683 174.16 85.1923 174.816 86.0243 175.776C86.8883 176.736 87.3203 177.984 87.3203 179.52C87.3203 181.792 86.5043 183.52 84.8723 184.704C83.2403 185.888 81.3683 186.48 79.2563 186.48C77.1763 186.48 75.3683 186.112 73.8323 185.376C72.3283 184.64 71.5763 183.728 71.5763 182.64C71.5763 181.712 72.2963 181.04 73.7363 180.624C74.0883 181.648 74.8403 182.432 75.9922 182.976C77.1763 183.52 78.4563 183.792 79.8323 183.792C81.2083 183.792 82.3123 183.488 83.1443 182.88C84.0083 182.272 84.4403 181.408 84.4403 180.288C84.4403 179.168 84.0083 178.352 83.1443 177.84C82.3123 177.328 81.2883 176.944 80.0723 176.688C78.8563 176.4 77.6403 176.08 76.4243 175.728C75.2083 175.344 74.1683 174.64 73.3043 173.616C72.4723 172.592 72.0563 171.2 72.0563 169.44C72.0563 167.648 72.8723 166.16 74.5043 164.976C76.1683 163.792 77.8963 163.2 79.6883 163.2C81.4803 163.2 83.0963 163.536 84.5363 164.208C85.9763 164.88 86.6963 165.76 86.6963 166.848C86.6963 167.936 85.9763 168.656 84.5363 169.008ZM110.561 165.36L110.369 176.256C110.369 180.32 110.673 183.488 111.281 185.76C110.641 186.016 110.049 186.144 109.505 186.144C108.033 186.144 107.297 185.344 107.297 183.744C104.993 185.568 102.449 186.48 99.6649 186.48C95.1209 186.48 92.8489 184.224 92.8489 179.712L92.9929 171.168C92.9929 168.256 92.7209 165.84 92.1769 163.92C92.8169 163.664 93.4889 163.536 94.1929 163.536C94.9289 163.536 95.4729 163.728 95.8249 164.112C96.2089 164.464 96.4009 165.088 96.4009 165.984C96.4009 165.984 96.3049 170.128 96.1129 178.416C96.1129 180.144 96.5289 181.472 97.3609 182.4C98.2249 183.328 99.3289 183.792 100.673 183.792C102.977 183.792 105.137 182.912 107.153 181.152C107.121 179.776 107.105 177.216 107.105 173.472C107.105 169.728 106.993 166.464 106.769 163.68C107.281 163.584 107.825 163.536 108.401 163.536C109.841 163.536 110.561 164.144 110.561 165.36ZM144.141 183.696L144.429 171.264C144.429 169.44 144.045 168.096 143.277 167.232C142.541 166.336 141.565 165.888 140.349 165.888C138.493 165.888 136.509 166.736 134.397 168.432C134.461 172.784 134.493 176.256 134.493 178.848C134.493 181.408 134.589 183.776 134.781 185.952C134.269 186.048 133.725 186.096 133.149 186.096C131.709 186.096 130.989 185.488 130.989 184.272C130.989 184.144 131.005 183.504 131.037 182.352C131.165 179.6 131.229 175.904 131.229 171.264C131.229 167.68 129.821 165.888 127.005 165.888C125.181 165.888 123.213 166.768 121.101 168.528C121.165 172.88 121.197 176.336 121.197 178.896C121.197 181.424 121.293 183.776 121.485 185.952C120.973 186.048 120.429 186.096 119.853 186.096C118.413 186.096 117.693 185.488 117.693 184.272C117.693 184.144 117.725 182.976 117.789 180.768C117.885 178.528 117.933 176.304 117.933 174.096C117.933 168.848 117.629 165.456 117.021 163.92C117.661 163.664 118.237 163.536 118.749 163.536C120.221 163.536 120.957 164.336 120.957 165.936C121.949 165.136 123.133 164.48 124.509 163.968C125.885 163.456 127.213 163.2 128.493 163.2C131.117 163.2 132.893 164.24 133.821 166.32C134.685 165.456 135.885 164.72 137.421 164.112C138.989 163.504 140.541 163.2 142.077 163.2C143.645 163.2 144.973 163.744 146.061 164.832C147.149 165.888 147.693 167.6 147.693 169.968L147.549 178.512C147.549 181.456 147.821 183.872 148.365 185.76C147.725 186.016 147.037 186.144 146.301 186.144C145.597 186.144 145.053 185.968 144.669 185.616C144.317 185.232 144.141 184.592 144.141 183.696ZM164.13 163.2C166.37 163.2 168.178 163.84 169.554 165.12C170.962 166.368 171.666 167.728 171.666 169.2C171.666 170.672 171.442 171.824 170.994 172.656C170.546 173.488 169.954 174.144 169.218 174.624C168.514 175.104 167.49 175.472 166.146 175.728C164.098 176.112 161.026 176.304 156.93 176.304C157.186 178.608 157.874 180.432 158.994 181.776C160.146 183.12 161.842 183.792 164.082 183.792C166.322 183.792 167.906 182.96 168.834 181.296C170.114 181.808 170.754 182.512 170.754 183.408C170.754 184.304 170.018 185.04 168.546 185.616C167.106 186.192 165.49 186.48 163.698 186.48C160.69 186.48 158.226 185.536 156.306 183.648C154.386 181.728 153.426 178.864 153.426 175.056C153.426 171.216 154.482 168.288 156.594 166.272C158.738 164.224 161.25 163.2 164.13 163.2ZM163.938 165.84C162.018 165.84 160.37 166.496 158.994 167.808C157.65 169.12 156.946 171.152 156.882 173.904C161.458 173.904 164.498 173.568 166.002 172.896C166.642 172.608 167.186 172.192 167.634 171.648C168.114 171.104 168.354 170.384 168.354 169.488C168.354 168.56 167.922 167.728 167.058 166.992C166.226 166.224 165.186 165.84 163.938 165.84Z" fill="#082879" fill-opacity="0.72"/>
<path d="M48 3.5H127V0.5H48V3.5ZM138.5 15V126H141.5V15H138.5ZM127 137.5H48V140.5H127V137.5ZM36.5 126V15H33.5V126H36.5ZM48 137.5C41.6487 137.5 36.5 132.351 36.5 126H33.5C33.5 134.008 39.9919 140.5 48 140.5V137.5ZM138.5 126C138.5 132.351 133.351 137.5 127 137.5V140.5C135.008 140.5 141.5 134.008 141.5 126H138.5ZM127 3.5C133.351 3.5 138.5 8.64873 138.5 15H141.5C141.5 6.99187 135.008 0.5 127 0.5V3.5ZM48 0.5C39.9919 0.5 33.5 6.99187 33.5 15H36.5C36.5 8.64873 41.6487 3.5 48 3.5V0.5ZM98.5 37.5C98.5 43.5751 93.5751 48.5 87.5 48.5V51.5C95.232 51.5 101.5 45.232 101.5 37.5H98.5ZM87.5 48.5C81.4249 48.5 76.5 43.5751 76.5 37.5H73.5C73.5 45.232 79.768 51.5 87.5 51.5V48.5ZM76.5 37.5C76.5 31.4249 81.4249 26.5 87.5 26.5V23.5C79.768 23.5 73.5 29.768 73.5 37.5H76.5ZM87.5 26.5C93.5751 26.5 98.5 31.4249 98.5 37.5H101.5C101.5 29.768 95.232 23.5 87.5 23.5V26.5ZM82 51.5H93V48.5H82V51.5ZM101.5 60V68H104.5V60H101.5ZM98 71.5H77V74.5H98V71.5ZM73.5 68V60H70.5V68H73.5ZM77 71.5C75.067 71.5 73.5 69.933 73.5 68H70.5C70.5 71.5899 73.4101 74.5 77 74.5V71.5ZM101.5 68C101.5 69.933 99.933 71.5 98 71.5V74.5C101.59 74.5 104.5 71.5899 104.5 68H101.5ZM93 51.5C97.6944 51.5 101.5 55.3056 101.5 60H104.5C104.5 53.6487 99.3513 48.5 93 48.5V51.5ZM82 48.5C75.6487 48.5 70.5 53.6487 70.5 60H73.5C73.5 55.3056 77.3056 51.5 82 51.5V48.5ZM56 98.5H118V95.5H56V98.5ZM56 108.5H118V105.5H56V108.5Z" fill="#000464"/>
</svg>
